<svg width="360" height="458" viewBox="0 0 360 458" fill="none" xmlns="http://www.w3.org/2000/svg">
<g filter="url(#filter0_d_92_13)">
<rect x="40" y="20" width="280" height="378" rx="32" fill="white"/>
</g>
<path d="M114.036 90.292V92.308H108.69V95.71H112.974V97.654H108.69V103H106.152V90.292H114.036ZM115.462 90.166C115.462 89.758 115.606 89.428 115.894 89.176C116.182 88.912 116.56 88.78 117.028 88.78C117.496 88.78 117.874 88.912 118.162 89.176C118.45 89.428 118.594 89.758 118.594 90.166C118.594 90.562 118.45 90.892 118.162 91.156C117.874 91.408 117.496 91.534 117.028 91.534C116.56 91.534 116.182 91.408 115.894 91.156C115.606 90.892 115.462 90.562 115.462 90.166ZM118.288 93.028V103H115.75V93.028H118.288ZM123.122 89.68V103H120.584V89.68H123.122ZM134.796 97.636C134.796 97.888 134.766 98.176 134.706 98.5H127.398C127.434 99.388 127.674 100.042 128.118 100.462C128.562 100.882 129.114 101.092 129.774 101.092C130.362 101.092 130.848 100.948 131.232 100.66C131.628 100.372 131.88 99.982 131.988 99.49H134.67C134.538 100.186 134.256 100.81 133.824 101.362C133.392 101.914 132.834 102.346 132.15 102.658C131.478 102.97 130.728 103.126 129.9 103.126C128.928 103.126 128.064 102.922 127.308 102.514C126.552 102.094 125.964 101.5 125.544 100.732C125.124 99.964 124.914 99.058 124.914 98.014C124.914 96.97 125.124 96.064 125.544 95.296C125.964 94.516 126.552 93.922 127.308 93.514C128.064 93.106 128.928 92.902 129.9 92.902C130.884 92.902 131.742 93.106 132.474 93.514C133.218 93.922 133.788 94.486 134.184 95.206C134.592 95.914 134.796 96.724 134.796 97.636ZM132.24 97.384C132.276 96.568 132.06 95.95 131.592 95.53C131.136 95.11 130.572 94.9 129.9 94.9C129.216 94.9 128.64 95.11 128.172 95.53C127.704 95.95 127.446 96.568 127.398 97.384H132.24ZM140.035 92.902C141.247 92.902 142.219 93.208 142.951 93.82C143.683 94.432 144.139 95.248 144.319 96.268H141.943C141.847 95.788 141.631 95.404 141.295 95.116C140.959 94.828 140.521 94.684 139.981 94.684C139.549 94.684 139.213 94.786 138.973 94.99C138.733 95.194 138.613 95.47 138.613 95.818C138.613 96.094 138.709 96.316 138.901 96.484C139.093 96.652 139.333 96.784 139.621 96.88C139.909 96.976 140.323 97.09 140.863 97.222C141.619 97.39 142.231 97.57 142.699 97.762C143.179 97.942 143.587 98.236 143.923 98.644C144.271 99.04 144.445 99.58 144.445 100.264C144.445 101.116 144.109 101.806 143.437 102.334C142.777 102.862 141.883 103.126 140.755 103.126C139.459 103.126 138.421 102.838 137.641 102.262C136.861 101.674 136.387 100.84 136.219 99.76H138.649C138.709 100.252 138.925 100.642 139.297 100.93C139.669 101.206 140.155 101.344 140.755 101.344C141.187 101.344 141.517 101.242 141.745 101.038C141.973 100.822 142.087 100.546 142.087 100.21C142.087 99.922 141.985 99.688 141.781 99.508C141.589 99.328 141.343 99.19 141.043 99.094C140.755 98.998 140.341 98.884 139.801 98.752C139.057 98.584 138.451 98.416 137.983 98.248C137.527 98.068 137.131 97.786 136.795 97.402C136.471 97.018 136.309 96.49 136.309 95.818C136.309 94.954 136.639 94.252 137.299 93.712C137.959 93.172 138.871 92.902 140.035 92.902ZM159.796 93.028V103H157.258V100.984C156.994 101.656 156.556 102.184 155.944 102.568C155.344 102.94 154.648 103.126 153.856 103.126C152.704 103.126 151.786 102.748 151.102 101.992C150.418 101.236 150.076 100.18 150.076 98.824V93.028H152.596V98.536C152.596 99.328 152.8 99.946 153.208 100.39C153.616 100.822 154.168 101.038 154.864 101.038C155.596 101.038 156.178 100.804 156.61 100.336C157.042 99.868 157.258 99.196 157.258 98.32V93.028H159.796ZM168.061 92.902C168.901 92.902 169.657 93.106 170.329 93.514C171.001 93.922 171.523 94.516 171.895 95.296C172.279 96.064 172.471 96.97 172.471 98.014C172.471 99.058 172.279 99.97 171.895 100.75C171.523 101.518 171.001 102.106 170.329 102.514C169.657 102.922 168.901 103.126 168.061 103.126C167.221 103.126 166.501 102.928 165.901 102.532C165.313 102.124 164.893 101.584 164.641 100.912V107.752H162.103V93.028H164.641V95.098C164.893 94.426 165.313 93.892 165.901 93.496C166.501 93.1 167.221 92.902 168.061 92.902ZM167.269 95.116C166.501 95.116 165.865 95.38 165.361 95.908C164.869 96.424 164.623 97.126 164.623 98.014C164.623 98.89 164.869 99.592 165.361 100.12C165.865 100.636 166.501 100.894 167.269 100.894C168.061 100.894 168.697 100.642 169.177 100.138C169.657 99.622 169.897 98.914 169.897 98.014C169.897 97.114 169.657 96.406 169.177 95.89C168.697 95.374 168.061 95.116 167.269 95.116ZM176.805 89.68V103H174.267V89.68H176.805ZM183.709 92.902C184.681 92.902 185.551 93.106 186.319 93.514C187.099 93.922 187.711 94.516 188.155 95.296C188.599 96.064 188.821 96.97 188.821 98.014C188.821 99.058 188.599 99.964 188.155 100.732C187.711 101.5 187.099 102.094 186.319 102.514C185.551 102.922 184.681 103.126 183.709 103.126C182.737 103.126 181.861 102.922 181.081 102.514C180.313 102.094 179.707 101.5 179.263 100.732C178.819 99.964 178.597 99.058 178.597 98.014C178.597 96.97 178.819 96.064 179.263 95.296C179.707 94.516 180.313 93.922 181.081 93.514C181.861 93.106 182.737 92.902 183.709 92.902ZM183.709 95.098C183.001 95.098 182.401 95.35 181.909 95.854C181.417 96.346 181.171 97.066 181.171 98.014C181.171 98.962 181.417 99.688 181.909 100.192C182.401 100.684 183.001 100.93 183.709 100.93C184.417 100.93 185.017 100.684 185.509 100.192C186.001 99.688 186.247 98.962 186.247 98.014C186.247 97.066 186.001 96.346 185.509 95.854C185.017 95.35 184.417 95.098 183.709 95.098ZM194.521 92.902C195.361 92.902 196.081 93.1 196.681 93.496C197.281 93.892 197.707 94.426 197.959 95.098V93.028H200.479V103H197.959V100.912C197.707 101.584 197.281 102.124 196.681 102.532C196.081 102.928 195.361 103.126 194.521 103.126C193.681 103.126 192.925 102.922 192.253 102.514C191.581 102.106 191.053 101.518 190.669 100.75C190.297 99.97 190.111 99.058 190.111 98.014C190.111 96.97 190.297 96.064 190.669 95.296C191.053 94.516 191.581 93.922 192.253 93.514C192.925 93.106 193.681 92.902 194.521 92.902ZM195.313 95.116C194.521 95.116 193.885 95.374 193.405 95.89C192.925 96.406 192.685 97.114 192.685 98.014C192.685 98.914 192.925 99.622 193.405 100.138C193.885 100.642 194.521 100.894 195.313 100.894C196.081 100.894 196.711 100.636 197.203 100.12C197.707 99.592 197.959 98.89 197.959 98.014C197.959 97.126 197.707 96.424 197.203 95.908C196.711 95.38 196.081 95.116 195.313 95.116ZM206.685 92.902C207.525 92.902 208.239 93.1 208.827 93.496C209.427 93.892 209.859 94.426 210.123 95.098V89.68H212.643V103H210.123V100.912C209.859 101.584 209.427 102.124 208.827 102.532C208.239 102.928 207.525 103.126 206.685 103.126C205.845 103.126 205.089 102.922 204.417 102.514C203.745 102.106 203.217 101.518 202.833 100.75C202.461 99.97 202.275 99.058 202.275 98.014C202.275 96.97 202.461 96.064 202.833 95.296C203.217 94.516 203.745 93.922 204.417 93.514C205.089 93.106 205.845 92.902 206.685 92.902ZM207.477 95.116C206.685 95.116 206.049 95.374 205.569 95.89C205.089 96.406 204.849 97.114 204.849 98.014C204.849 98.914 205.089 99.622 205.569 100.138C206.049 100.642 206.685 100.894 207.477 100.894C208.245 100.894 208.875 100.636 209.367 100.12C209.871 99.592 210.123 98.89 210.123 98.014C210.123 97.126 209.871 96.424 209.367 95.908C208.875 95.38 208.245 95.116 207.477 95.116ZM214.655 90.166C214.655 89.758 214.799 89.428 215.087 89.176C215.375 88.912 215.753 88.78 216.221 88.78C216.689 88.78 217.067 88.912 217.355 89.176C217.643 89.428 217.787 89.758 217.787 90.166C217.787 90.562 217.643 90.892 217.355 91.156C217.067 91.408 216.689 91.534 216.221 91.534C215.753 91.534 215.375 91.408 215.087 91.156C214.799 90.892 214.655 90.562 214.655 90.166ZM217.481 93.028V103H214.943V93.028H217.481ZM225.717 92.884C226.869 92.884 227.787 93.262 228.471 94.018C229.155 94.774 229.497 95.836 229.497 97.204V103H226.977V97.492C226.977 96.7 226.773 96.088 226.365 95.656C225.957 95.212 225.399 94.99 224.691 94.99C223.971 94.99 223.395 95.224 222.963 95.692C222.531 96.16 222.315 96.832 222.315 97.708V103H219.777V93.028H222.315V95.026C222.579 94.354 223.011 93.832 223.611 93.46C224.223 93.076 224.925 92.884 225.717 92.884ZM235.636 92.902C236.476 92.902 237.196 93.1 237.796 93.496C238.396 93.892 238.822 94.426 239.074 95.098V93.028H241.594V103.036C241.594 103.96 241.408 104.788 241.036 105.52C240.676 106.264 240.13 106.846 239.398 107.266C238.678 107.686 237.802 107.896 236.77 107.896C235.33 107.896 234.166 107.554 233.278 106.87C232.39 106.186 231.85 105.256 231.658 104.08H234.16C234.304 104.584 234.58 104.974 234.988 105.25C235.408 105.538 235.942 105.682 236.59 105.682C237.334 105.682 237.934 105.46 238.39 105.016C238.846 104.584 239.074 103.924 239.074 103.036V100.912C238.822 101.584 238.396 102.124 237.796 102.532C237.196 102.928 236.476 103.126 235.636 103.126C234.796 103.126 234.04 102.922 233.368 102.514C232.696 102.106 232.168 101.518 231.784 100.75C231.412 99.97 231.226 99.058 231.226 98.014C231.226 96.97 231.412 96.064 231.784 95.296C232.168 94.516 232.696 93.922 233.368 93.514C234.04 93.106 234.796 92.902 235.636 92.902ZM236.428 95.116C235.636 95.116 235 95.374 234.52 95.89C234.04 96.406 233.8 97.114 233.8 98.014C233.8 98.914 234.04 99.622 234.52 100.138C235 100.642 235.636 100.894 236.428 100.894C237.196 100.894 237.826 100.636 238.318 100.12C238.822 99.592 239.074 98.89 239.074 98.014C239.074 97.126 238.822 96.424 238.318 95.908C237.826 95.38 237.196 95.116 236.428 95.116ZM250.014 100.354V103H247.278V100.354H250.014ZM254.028 100.354V103H251.292V100.354H254.028ZM246 100.354V103H243.264V100.354H246Z" fill="black"/>
<path d="M145.653 167.707C146.26 167.707 146.775 167.85 147.2 168.136C147.633 168.422 147.945 168.808 148.136 169.293V165.38H149.956V175H148.136V173.492C147.945 173.977 147.633 174.367 147.2 174.662C146.775 174.948 146.26 175.091 145.653 175.091C145.046 175.091 144.5 174.944 144.015 174.649C143.53 174.354 143.148 173.93 142.871 173.375C142.602 172.812 142.468 172.153 142.468 171.399C142.468 170.645 142.602 169.991 142.871 169.436C143.148 168.873 143.53 168.444 144.015 168.149C144.5 167.854 145.046 167.707 145.653 167.707ZM146.225 169.306C145.653 169.306 145.194 169.492 144.847 169.865C144.5 170.238 144.327 170.749 144.327 171.399C144.327 172.049 144.5 172.56 144.847 172.933C145.194 173.297 145.653 173.479 146.225 173.479C146.78 173.479 147.235 173.293 147.59 172.92C147.954 172.539 148.136 172.032 148.136 171.399C148.136 170.758 147.954 170.251 147.59 169.878C147.235 169.497 146.78 169.306 146.225 169.306ZM158.39 171.126C158.39 171.308 158.368 171.516 158.325 171.75H153.047C153.073 172.391 153.246 172.864 153.567 173.167C153.888 173.47 154.286 173.622 154.763 173.622C155.188 173.622 155.539 173.518 155.816 173.31C156.102 173.102 156.284 172.82 156.362 172.465H158.299C158.204 172.968 158 173.418 157.688 173.817C157.376 174.216 156.973 174.528 156.479 174.753C155.994 174.978 155.452 175.091 154.854 175.091C154.152 175.091 153.528 174.944 152.982 174.649C152.436 174.346 152.011 173.917 151.708 173.362C151.405 172.807 151.253 172.153 151.253 171.399C151.253 170.645 151.405 169.991 151.708 169.436C152.011 168.873 152.436 168.444 152.982 168.149C153.528 167.854 154.152 167.707 154.854 167.707C155.565 167.707 156.184 167.854 156.713 168.149C157.25 168.444 157.662 168.851 157.948 169.371C158.243 169.882 158.39 170.467 158.39 171.126ZM156.544 170.944C156.57 170.355 156.414 169.908 156.076 169.605C155.747 169.302 155.339 169.15 154.854 169.15C154.36 169.15 153.944 169.302 153.606 169.605C153.268 169.908 153.082 170.355 153.047 170.944H156.544ZM162.174 167.707C163.05 167.707 163.752 167.928 164.28 168.37C164.809 168.812 165.138 169.401 165.268 170.138H163.552C163.483 169.791 163.327 169.514 163.084 169.306C162.842 169.098 162.525 168.994 162.135 168.994C161.823 168.994 161.581 169.068 161.407 169.215C161.234 169.362 161.147 169.562 161.147 169.813C161.147 170.012 161.217 170.173 161.355 170.294C161.494 170.415 161.667 170.511 161.875 170.58C162.083 170.649 162.382 170.732 162.772 170.827C163.318 170.948 163.76 171.078 164.098 171.217C164.445 171.347 164.74 171.559 164.982 171.854C165.234 172.14 165.359 172.53 165.359 173.024C165.359 173.639 165.117 174.138 164.631 174.519C164.155 174.9 163.509 175.091 162.694 175.091C161.758 175.091 161.009 174.883 160.445 174.467C159.882 174.042 159.54 173.44 159.418 172.66H161.173C161.217 173.015 161.373 173.297 161.641 173.505C161.91 173.704 162.261 173.804 162.694 173.804C163.006 173.804 163.245 173.73 163.409 173.583C163.574 173.427 163.656 173.228 163.656 172.985C163.656 172.777 163.583 172.608 163.435 172.478C163.297 172.348 163.119 172.248 162.902 172.179C162.694 172.11 162.395 172.027 162.005 171.932C161.468 171.811 161.03 171.689 160.692 171.568C160.363 171.438 160.077 171.234 159.834 170.957C159.6 170.68 159.483 170.298 159.483 169.813C159.483 169.189 159.722 168.682 160.198 168.292C160.675 167.902 161.334 167.707 162.174 167.707ZM166.517 165.731C166.517 165.436 166.621 165.198 166.829 165.016C167.037 164.825 167.31 164.73 167.648 164.73C167.986 164.73 168.259 164.825 168.467 165.016C168.675 165.198 168.779 165.436 168.779 165.731C168.779 166.017 168.675 166.255 168.467 166.446C168.259 166.628 167.986 166.719 167.648 166.719C167.31 166.719 167.037 166.628 166.829 166.446C166.621 166.255 166.517 166.017 166.517 165.731ZM168.558 167.798V175H166.725V167.798H168.558ZM173.037 167.707C173.643 167.707 174.163 167.85 174.597 168.136C175.03 168.422 175.338 168.808 175.52 169.293V167.798H177.34V175.026C177.34 175.693 177.205 176.291 176.937 176.82C176.677 177.357 176.282 177.778 175.754 178.081C175.234 178.384 174.601 178.536 173.856 178.536C172.816 178.536 171.975 178.289 171.334 177.795C170.692 177.301 170.302 176.629 170.164 175.78H171.971C172.075 176.144 172.274 176.426 172.569 176.625C172.872 176.833 173.258 176.937 173.726 176.937C174.263 176.937 174.696 176.777 175.026 176.456C175.355 176.144 175.52 175.667 175.52 175.026V173.492C175.338 173.977 175.03 174.367 174.597 174.662C174.163 174.948 173.643 175.091 173.037 175.091C172.43 175.091 171.884 174.944 171.399 174.649C170.913 174.354 170.532 173.93 170.255 173.375C169.986 172.812 169.852 172.153 169.852 171.399C169.852 170.645 169.986 169.991 170.255 169.436C170.532 168.873 170.913 168.444 171.399 168.149C171.884 167.854 172.43 167.707 173.037 167.707ZM173.609 169.306C173.037 169.306 172.577 169.492 172.231 169.865C171.884 170.238 171.711 170.749 171.711 171.399C171.711 172.049 171.884 172.56 172.231 172.933C172.577 173.297 173.037 173.479 173.609 173.479C174.163 173.479 174.618 173.293 174.974 172.92C175.338 172.539 175.52 172.032 175.52 171.399C175.52 170.758 175.338 170.251 174.974 169.878C174.618 169.497 174.163 169.306 173.609 169.306ZM183.291 167.694C184.123 167.694 184.786 167.967 185.28 168.513C185.774 169.059 186.021 169.826 186.021 170.814V175H184.201V171.022C184.201 170.45 184.054 170.008 183.759 169.696C183.464 169.375 183.061 169.215 182.55 169.215C182.03 169.215 181.614 169.384 181.302 169.722C180.99 170.06 180.834 170.545 180.834 171.178V175H179.001V167.798H180.834V169.241C181.025 168.756 181.337 168.379 181.77 168.11C182.212 167.833 182.719 167.694 183.291 167.694ZM189.155 173.089V175H187.179V173.089H189.155ZM194.679 167.707C195.286 167.707 195.832 167.854 196.317 168.149C196.802 168.444 197.179 168.873 197.448 169.436C197.725 169.991 197.864 170.645 197.864 171.399C197.864 172.153 197.725 172.812 197.448 173.375C197.179 173.93 196.802 174.354 196.317 174.649C195.832 174.944 195.286 175.091 194.679 175.091C194.072 175.091 193.552 174.948 193.119 174.662C192.694 174.367 192.391 173.977 192.209 173.492V178.432H190.376V167.798H192.209V169.293C192.391 168.808 192.694 168.422 193.119 168.136C193.552 167.85 194.072 167.707 194.679 167.707ZM194.107 169.306C193.552 169.306 193.093 169.497 192.729 169.878C192.374 170.251 192.196 170.758 192.196 171.399C192.196 172.032 192.374 172.539 192.729 172.92C193.093 173.293 193.552 173.479 194.107 173.479C194.679 173.479 195.138 173.297 195.485 172.933C195.832 172.56 196.005 172.049 196.005 171.399C196.005 170.749 195.832 170.238 195.485 169.865C195.138 169.492 194.679 169.306 194.107 169.306ZM201.644 167.707C202.519 167.707 203.221 167.928 203.75 168.37C204.279 168.812 204.608 169.401 204.738 170.138H203.022C202.953 169.791 202.797 169.514 202.554 169.306C202.311 169.098 201.995 168.994 201.605 168.994C201.293 168.994 201.05 169.068 200.877 169.215C200.704 169.362 200.617 169.562 200.617 169.813C200.617 170.012 200.686 170.173 200.825 170.294C200.964 170.415 201.137 170.511 201.345 170.58C201.553 170.649 201.852 170.732 202.242 170.827C202.788 170.948 203.23 171.078 203.568 171.217C203.915 171.347 204.209 171.559 204.452 171.854C204.703 172.14 204.829 172.53 204.829 173.024C204.829 173.639 204.586 174.138 204.101 174.519C203.624 174.9 202.979 175.091 202.164 175.091C201.228 175.091 200.478 174.883 199.915 174.467C199.352 174.042 199.009 173.44 198.888 172.66H200.643C200.686 173.015 200.842 173.297 201.111 173.505C201.38 173.704 201.731 173.804 202.164 173.804C202.476 173.804 202.714 173.73 202.879 173.583C203.044 173.427 203.126 173.228 203.126 172.985C203.126 172.777 203.052 172.608 202.905 172.478C202.766 172.348 202.589 172.248 202.372 172.179C202.164 172.11 201.865 172.027 201.475 171.932C200.938 171.811 200.5 171.689 200.162 171.568C199.833 171.438 199.547 171.234 199.304 170.957C199.07 170.68 198.953 170.298 198.953 169.813C198.953 169.189 199.191 168.682 199.668 168.292C200.145 167.902 200.803 167.707 201.644 167.707ZM209.015 167.707C209.622 167.707 210.138 167.85 210.562 168.136C210.996 168.422 211.308 168.808 211.498 169.293V165.38H213.318V175H211.498V173.492C211.308 173.977 210.996 174.367 210.562 174.662C210.138 174.948 209.622 175.091 209.015 175.091C208.409 175.091 207.863 174.944 207.377 174.649C206.892 174.354 206.511 173.93 206.233 173.375C205.965 172.812 205.83 172.153 205.83 171.399C205.83 170.645 205.965 169.991 206.233 169.436C206.511 168.873 206.892 168.444 207.377 168.149C207.863 167.854 208.409 167.707 209.015 167.707ZM209.587 169.306C209.015 169.306 208.556 169.492 208.209 169.865C207.863 170.238 207.689 170.749 207.689 171.399C207.689 172.049 207.863 172.56 208.209 172.933C208.556 173.297 209.015 173.479 209.587 173.479C210.142 173.479 210.597 173.293 210.952 172.92C211.316 172.539 211.498 172.032 211.498 171.399C211.498 170.758 211.316 170.251 210.952 169.878C210.597 169.497 210.142 169.306 209.587 169.306Z" fill="black"/>
<path opacity="0.6" d="M266.852 188.037H262.87V190.633C263.053 190.384 263.317 190.186 263.662 190.039C264.007 189.892 264.384 189.819 264.795 189.819C265.345 189.819 265.8 189.936 266.159 190.171C266.526 190.398 266.793 190.703 266.962 191.084C267.138 191.458 267.226 191.876 267.226 192.338C267.226 193.137 267.002 193.79 266.555 194.296C266.108 194.802 265.451 195.055 264.586 195.055C263.809 195.055 263.174 194.846 262.683 194.428C262.192 194.003 261.917 193.434 261.858 192.723H262.848C262.929 193.178 263.116 193.533 263.409 193.79C263.71 194.039 264.087 194.164 264.542 194.164C265.107 194.164 265.532 193.995 265.818 193.658C266.104 193.321 266.247 192.877 266.247 192.327C266.247 191.792 266.1 191.374 265.807 191.073C265.514 190.772 265.099 190.622 264.564 190.622C264.183 190.622 263.849 190.706 263.563 190.875C263.277 191.036 263.061 191.256 262.914 191.535H261.946V187.146H266.852V188.037ZM268.405 191.073C268.405 192.32 268.611 193.291 269.021 193.988C269.432 194.685 270.143 195.033 271.155 195.033C272.167 195.033 272.879 194.685 273.289 193.988C273.707 193.291 273.916 192.32 273.916 191.073C273.916 189.841 273.707 188.877 273.289 188.18C272.879 187.483 272.167 187.135 271.155 187.135C270.143 187.135 269.432 187.483 269.021 188.18C268.611 188.869 268.405 189.834 268.405 191.073ZM272.926 191.073C272.926 191.711 272.879 192.246 272.783 192.679C272.695 193.104 272.523 193.445 272.266 193.702C272.01 193.959 271.639 194.087 271.155 194.087C270.679 194.087 270.312 193.959 270.055 193.702C269.799 193.445 269.623 193.104 269.527 192.679C269.439 192.246 269.395 191.711 269.395 191.073C269.395 190.442 269.439 189.914 269.527 189.489C269.623 189.064 269.799 188.726 270.055 188.477C270.312 188.22 270.679 188.092 271.155 188.092C271.639 188.092 272.01 188.22 272.266 188.477C272.523 188.726 272.695 189.064 272.783 189.489C272.879 189.914 272.926 190.442 272.926 191.073ZM276.504 187.135C276.966 187.135 277.347 187.285 277.648 187.586C277.956 187.879 278.11 188.272 278.11 188.763C278.11 189.254 277.96 189.647 277.659 189.94C277.358 190.233 276.973 190.38 276.504 190.38C276.035 190.38 275.65 190.233 275.349 189.94C275.048 189.647 274.898 189.254 274.898 188.763C274.898 188.272 275.048 187.879 275.349 187.586C275.65 187.285 276.035 187.135 276.504 187.135ZM280.882 187.234L276.427 195H275.437L279.892 187.234H280.882ZM275.602 188.763C275.602 189.056 275.683 189.295 275.844 189.478C276.013 189.661 276.229 189.753 276.493 189.753C276.764 189.753 276.984 189.661 277.153 189.478C277.322 189.295 277.406 189.056 277.406 188.763C277.406 188.47 277.322 188.231 277.153 188.048C276.984 187.865 276.764 187.773 276.493 187.773C276.229 187.773 276.013 187.865 275.844 188.048C275.683 188.231 275.602 188.47 275.602 188.763ZM279.826 191.854C280.295 191.854 280.677 192.001 280.97 192.294C281.271 192.587 281.421 192.98 281.421 193.471C281.421 193.962 281.271 194.358 280.97 194.659C280.677 194.952 280.295 195.099 279.826 195.099C279.364 195.099 278.979 194.952 278.671 194.659C278.37 194.358 278.22 193.962 278.22 193.471C278.22 192.98 278.37 192.587 278.671 192.294C278.972 192.001 279.357 191.854 279.826 191.854ZM278.924 193.471C278.924 193.764 279.005 194.003 279.166 194.186C279.335 194.369 279.555 194.461 279.826 194.461C280.09 194.461 280.303 194.369 280.464 194.186C280.633 194.003 280.717 193.764 280.717 193.471C280.717 193.178 280.633 192.939 280.464 192.756C280.303 192.573 280.09 192.481 279.826 192.481C279.555 192.481 279.335 192.573 279.166 192.756C279.005 192.939 278.924 193.178 278.924 193.471Z" fill="black"/>
<path d="M185.884 55.1148H182.941C182.208 55.1197 181.512 54.7936 181.047 54.2275L180.078 52.8876C179.621 52.3166 178.925 51.9889 178.193 52.0003H176.113C172.378 52.0003 171 54.192 171 57.9188V61.9474C170.995 62.3904 190.996 62.3898 190.997 61.9474V60.7761C191.015 57.0492 189.672 55.1148 185.884 55.1148Z" fill="url(#paint0_linear_92_13)"/>
<path fill-rule="evenodd" clip-rule="evenodd" d="M189.832 56.5435C190.152 56.9176 190.399 57.3479 190.561 57.8124C190.88 58.7671 191.027 59.7704 190.997 60.7761V66.0292C190.996 66.4717 190.963 66.9135 190.899 67.3513C190.778 68.1241 190.506 68.8656 190.099 69.5342C189.912 69.8571 189.685 70.1553 189.423 70.4215C188.238 71.5089 186.665 72.0749 185.057 71.9921H176.931C175.32 72.0743 173.745 71.5086 172.556 70.4215C172.297 70.1547 172.073 69.8566 171.889 69.5342C171.485 68.8661 171.219 68.1238 171.107 67.3513C171.035 66.9142 171 66.4721 171 66.0292V60.7761C171 60.3374 171.024 59.899 171.071 59.4629C171.081 59.3864 171.096 59.3111 171.111 59.2366C171.136 59.1124 171.16 58.9904 171.16 58.8684C171.25 58.342 171.415 57.8312 171.649 57.351C172.343 55.8692 173.765 55.1149 176.095 55.1149H185.875C187.18 55.014 188.475 55.4068 189.503 56.2152C189.622 56.3156 189.732 56.4254 189.832 56.5435ZM175.97 65.5412H186.035H186.053C186.274 65.5507 186.49 65.4717 186.652 65.3217C186.814 65.1716 186.909 64.963 186.916 64.7425C186.928 64.5487 186.864 64.3577 186.738 64.2101C186.592 64.0118 186.362 63.8935 186.116 63.8907H175.97C175.514 63.8907 175.143 64.2602 175.143 64.7159C175.143 65.1717 175.514 65.5412 175.97 65.5412Z" fill="url(#paint1_linear_92_13)"/>
<rect opacity="0.1" x="76.5" y="154.5" width="51" height="51" rx="15.5" stroke="black"/>
<path fill-rule="evenodd" clip-rule="evenodd" d="M107.829 175.023L105.106 172.167C105.055 172.113 104.995 172.071 104.928 172.043C104.863 172.015 104.792 172 104.721 172H97.6404C96.7379 172 96.0063 172.767 96.0063 173.714V186.282C96.0063 187.228 96.7379 187.996 97.6404 187.996H106.355C107.258 187.996 107.989 187.228 107.989 186.282V175.428C107.989 175.276 107.931 175.131 107.829 175.023ZM105.266 173.95L106.13 174.856H105.266V173.95ZM106.355 186.853C106.656 186.853 106.9 186.597 106.9 186.282H106.9V175.999H104.721C104.42 175.999 104.177 175.743 104.177 175.428V173.143H97.6404C97.3396 173.143 97.0957 173.398 97.0957 173.714V186.282C97.0957 186.597 97.3396 186.853 97.6404 186.853H106.355Z" fill="black"/>
<path opacity="0.2" d="M145 192.5H245" stroke="url(#paint2_linear_92_13)" stroke-width="4" stroke-linecap="round"/>
<path d="M145 192.5H195" stroke="url(#paint3_linear_92_13)" stroke-width="4" stroke-linecap="round"/>
<path d="M144.665 249.176C144.934 248.717 145.289 248.357 145.731 248.097C146.173 247.828 146.667 247.694 147.213 247.694V249.657H146.68C145.337 249.657 144.665 250.281 144.665 251.529V255H142.832V247.798H144.665V249.176ZM155.001 251.126C155.001 251.308 154.979 251.516 154.936 251.75H149.658C149.684 252.391 149.857 252.864 150.178 253.167C150.498 253.47 150.897 253.622 151.374 253.622C151.798 253.622 152.149 253.518 152.427 253.31C152.713 253.102 152.895 252.82 152.973 252.465H154.91C154.814 252.968 154.611 253.418 154.299 253.817C153.987 254.216 153.584 254.528 153.09 254.753C152.604 254.978 152.063 255.091 151.465 255.091C150.763 255.091 150.139 254.944 149.593 254.649C149.047 254.346 148.622 253.917 148.319 253.362C148.015 252.807 147.864 252.153 147.864 251.399C147.864 250.645 148.015 249.991 148.319 249.436C148.622 248.873 149.047 248.444 149.593 248.149C150.139 247.854 150.763 247.707 151.465 247.707C152.175 247.707 152.795 247.854 153.324 248.149C153.861 248.444 154.273 248.851 154.559 249.371C154.853 249.882 155.001 250.467 155.001 251.126ZM153.155 250.944C153.181 250.355 153.025 249.908 152.687 249.605C152.357 249.302 151.95 249.15 151.465 249.15C150.971 249.15 150.555 249.302 150.217 249.605C149.879 249.908 149.692 250.355 149.658 250.944H153.155ZM158.785 247.707C159.66 247.707 160.362 247.928 160.891 248.37C161.419 248.812 161.749 249.401 161.879 250.138H160.163C160.093 249.791 159.937 249.514 159.695 249.306C159.452 249.098 159.136 248.994 158.746 248.994C158.434 248.994 158.191 249.068 158.018 249.215C157.844 249.362 157.758 249.562 157.758 249.813C157.758 250.012 157.827 250.173 157.966 250.294C158.104 250.415 158.278 250.511 158.486 250.58C158.694 250.649 158.993 250.732 159.383 250.827C159.929 250.948 160.371 251.078 160.709 251.217C161.055 251.347 161.35 251.559 161.593 251.854C161.844 252.14 161.97 252.53 161.97 253.024C161.97 253.639 161.727 254.138 161.242 254.519C160.765 254.9 160.119 255.091 159.305 255.091C158.369 255.091 157.619 254.883 157.056 254.467C156.492 254.042 156.15 253.44 156.029 252.66H157.784C157.827 253.015 157.983 253.297 158.252 253.505C158.52 253.704 158.871 253.804 159.305 253.804C159.617 253.804 159.855 253.73 160.02 253.583C160.184 253.427 160.267 253.228 160.267 252.985C160.267 252.777 160.193 252.608 160.046 252.478C159.907 252.348 159.729 252.248 159.513 252.179C159.305 252.11 159.006 252.027 158.616 251.932C158.078 251.811 157.641 251.689 157.303 251.568C156.973 251.438 156.687 251.234 156.445 250.957C156.211 250.68 156.094 250.298 156.094 249.813C156.094 249.189 156.332 248.682 156.809 248.292C157.285 247.902 157.944 247.707 158.785 247.707ZM170.225 247.798V255H168.392V253.544C168.201 254.029 167.885 254.411 167.443 254.688C167.01 254.957 166.507 255.091 165.935 255.091C165.103 255.091 164.44 254.818 163.946 254.272C163.452 253.726 163.205 252.963 163.205 251.984V247.798H165.025V251.776C165.025 252.348 165.172 252.794 165.467 253.115C165.762 253.427 166.16 253.583 166.663 253.583C167.192 253.583 167.612 253.414 167.924 253.076C168.236 252.738 168.392 252.253 168.392 251.62V247.798H170.225ZM181.057 247.694C181.932 247.694 182.621 247.967 183.124 248.513C183.635 249.05 183.891 249.817 183.891 250.814V255H182.071V251.022C182.071 250.467 181.928 250.043 181.642 249.748C181.364 249.445 180.979 249.293 180.485 249.293C179.973 249.293 179.566 249.453 179.263 249.774C178.959 250.095 178.808 250.563 178.808 251.178V255H176.988V251.022C176.988 250.467 176.845 250.043 176.559 249.748C176.281 249.445 175.896 249.293 175.402 249.293C174.89 249.293 174.483 249.453 174.18 249.774C173.876 250.095 173.725 250.563 173.725 251.178V255H171.892V247.798H173.725V249.163C173.915 248.695 174.214 248.335 174.622 248.084C175.038 247.824 175.519 247.694 176.065 247.694C176.645 247.694 177.148 247.833 177.573 248.11C178.006 248.387 178.331 248.786 178.548 249.306C178.773 248.812 179.107 248.422 179.549 248.136C179.999 247.841 180.502 247.694 181.057 247.694ZM192.274 251.126C192.274 251.308 192.252 251.516 192.209 251.75H186.931C186.957 252.391 187.13 252.864 187.451 253.167C187.772 253.47 188.17 253.622 188.647 253.622C189.072 253.622 189.423 253.518 189.7 253.31C189.986 253.102 190.168 252.82 190.246 252.465H192.183C192.088 252.968 191.884 253.418 191.572 253.817C191.26 254.216 190.857 254.528 190.363 254.753C189.878 254.978 189.336 255.091 188.738 255.091C188.036 255.091 187.412 254.944 186.866 254.649C186.32 254.346 185.895 253.917 185.592 253.362C185.289 252.807 185.137 252.153 185.137 251.399C185.137 250.645 185.289 249.991 185.592 249.436C185.895 248.873 186.32 248.444 186.866 248.149C187.412 247.854 188.036 247.707 188.738 247.707C189.449 247.707 190.068 247.854 190.597 248.149C191.134 248.444 191.546 248.851 191.832 249.371C192.127 249.882 192.274 250.467 192.274 251.126ZM190.428 250.944C190.454 250.355 190.298 249.908 189.96 249.605C189.631 249.302 189.223 249.15 188.738 249.15C188.244 249.15 187.828 249.302 187.49 249.605C187.152 249.908 186.966 250.355 186.931 250.944H190.428ZM195.096 253.089V255H193.12V253.089H195.096ZM199.138 247.707C199.745 247.707 200.261 247.85 200.685 248.136C201.119 248.422 201.431 248.808 201.621 249.293V245.38H203.441V255H201.621V253.492C201.431 253.977 201.119 254.367 200.685 254.662C200.261 254.948 199.745 255.091 199.138 255.091C198.532 255.091 197.986 254.944 197.5 254.649C197.015 254.354 196.634 253.93 196.356 253.375C196.088 252.812 195.953 252.153 195.953 251.399C195.953 250.645 196.088 249.991 196.356 249.436C196.634 248.873 197.015 248.444 197.5 248.149C197.986 247.854 198.532 247.707 199.138 247.707ZM199.71 249.306C199.138 249.306 198.679 249.492 198.332 249.865C197.986 250.238 197.812 250.749 197.812 251.399C197.812 252.049 197.986 252.56 198.332 252.933C198.679 253.297 199.138 253.479 199.71 253.479C200.265 253.479 200.72 253.293 201.075 252.92C201.439 252.539 201.621 252.032 201.621 251.399C201.621 250.758 201.439 250.251 201.075 249.878C200.72 249.497 200.265 249.306 199.71 249.306ZM208.431 247.707C209.133 247.707 209.761 247.854 210.316 248.149C210.879 248.444 211.321 248.873 211.642 249.436C211.962 249.991 212.123 250.645 212.123 251.399C212.123 252.153 211.962 252.807 211.642 253.362C211.321 253.917 210.879 254.346 210.316 254.649C209.761 254.944 209.133 255.091 208.431 255.091C207.729 255.091 207.096 254.944 206.533 254.649C205.978 254.346 205.54 253.917 205.22 253.362C204.899 252.807 204.739 252.153 204.739 251.399C204.739 250.645 204.899 249.991 205.22 249.436C205.54 248.873 205.978 248.444 206.533 248.149C207.096 247.854 207.729 247.707 208.431 247.707ZM208.431 249.293C207.919 249.293 207.486 249.475 207.131 249.839C206.775 250.194 206.598 250.714 206.598 251.399C206.598 252.084 206.775 252.608 207.131 252.972C207.486 253.327 207.919 253.505 208.431 253.505C208.942 253.505 209.375 253.327 209.731 252.972C210.086 252.608 210.264 252.084 210.264 251.399C210.264 250.714 210.086 250.194 209.731 249.839C209.375 249.475 208.942 249.293 208.431 249.293ZM216.655 247.707C217.582 247.707 218.354 247.958 218.969 248.461C219.593 248.964 219.983 249.648 220.139 250.515H218.202C218.124 250.134 217.946 249.835 217.669 249.618C217.392 249.393 217.041 249.28 216.616 249.28C216.131 249.28 215.723 249.462 215.394 249.826C215.073 250.181 214.913 250.706 214.913 251.399C214.913 252.092 215.073 252.621 215.394 252.985C215.723 253.34 216.131 253.518 216.616 253.518C217.041 253.518 217.392 253.41 217.669 253.193C217.946 252.968 218.124 252.664 218.202 252.283H220.139C219.983 253.15 219.593 253.834 218.969 254.337C218.354 254.84 217.582 255.091 216.655 255.091C215.953 255.091 215.329 254.944 214.783 254.649C214.237 254.346 213.812 253.917 213.509 253.362C213.206 252.807 213.054 252.153 213.054 251.399C213.054 250.645 213.206 249.991 213.509 249.436C213.812 248.873 214.237 248.444 214.783 248.149C215.329 247.854 215.953 247.707 216.655 247.707ZM225.822 255L224.184 252.686L222.806 255H220.791L223.17 251.243L220.739 247.798H222.793L224.392 250.073L225.77 247.798H227.785L225.367 251.451L227.876 255H225.822Z" fill="black"/>
<path opacity="0.6" d="M264.289 267.036C264.788 267.036 265.217 267.124 265.576 267.3C265.935 267.476 266.207 267.718 266.39 268.026C266.573 268.334 266.665 268.682 266.665 269.071C266.665 269.555 266.522 269.962 266.236 270.292C265.957 270.622 265.547 270.82 265.004 270.886V270.952C265.569 271.099 266.009 271.326 266.324 271.634C266.647 271.942 266.808 272.367 266.808 272.91C266.808 273.548 266.595 274.069 266.17 274.472C265.745 274.875 265.132 275.077 264.333 275.077C263.534 275.077 262.885 274.872 262.386 274.461C261.895 274.043 261.605 273.434 261.517 272.635H262.507C262.573 273.119 262.756 273.504 263.057 273.79C263.365 274.076 263.779 274.219 264.3 274.219C264.791 274.219 265.169 274.094 265.433 273.845C265.697 273.588 265.829 273.258 265.829 272.855C265.829 272.371 265.638 272.004 265.257 271.755C264.883 271.498 264.348 271.37 263.651 271.37H263.387V270.534H263.651C265 270.534 265.675 270.083 265.675 269.181C265.675 268.785 265.55 268.47 265.301 268.235C265.052 268 264.707 267.883 264.267 267.883C263.827 267.883 263.457 268.011 263.156 268.268C262.855 268.517 262.679 268.888 262.628 269.379H261.649C261.7 268.646 261.953 268.074 262.408 267.663C262.87 267.245 263.497 267.036 264.289 267.036ZM267.94 274.23C269.186 273.394 270.184 272.565 270.932 271.744C271.68 270.915 272.054 270.145 272.054 269.434C272.054 268.994 271.94 268.642 271.713 268.378C271.493 268.107 271.133 267.971 270.635 267.971C270.121 267.971 269.733 268.136 269.469 268.466C269.205 268.789 269.058 269.236 269.029 269.808H268.039C268.09 268.943 268.358 268.279 268.842 267.817C269.326 267.348 269.949 267.113 270.712 267.113C271.438 267.113 272.013 267.307 272.439 267.696C272.864 268.085 273.077 268.635 273.077 269.346C273.077 269.933 272.886 270.53 272.505 271.139C272.131 271.74 271.658 272.301 271.086 272.822C270.521 273.335 269.938 273.772 269.337 274.131H273.275V274.956H267.94V274.23ZM275.688 267.135C276.15 267.135 276.531 267.285 276.832 267.586C277.14 267.879 277.294 268.272 277.294 268.763C277.294 269.254 277.143 269.647 276.843 269.94C276.542 270.233 276.157 270.38 275.688 270.38C275.218 270.38 274.833 270.233 274.533 269.94C274.232 269.647 274.082 269.254 274.082 268.763C274.082 268.272 274.232 267.879 274.533 267.586C274.833 267.285 275.218 267.135 275.688 267.135ZM280.066 267.234L275.611 275H274.621L279.076 267.234H280.066ZM274.786 268.763C274.786 269.056 274.866 269.295 275.028 269.478C275.196 269.661 275.413 269.753 275.677 269.753C275.948 269.753 276.168 269.661 276.337 269.478C276.505 269.295 276.59 269.056 276.59 268.763C276.59 268.47 276.505 268.231 276.337 268.048C276.168 267.865 275.948 267.773 275.677 267.773C275.413 267.773 275.196 267.865 275.028 268.048C274.866 268.231 274.786 268.47 274.786 268.763ZM279.01 271.854C279.479 271.854 279.86 272.001 280.154 272.294C280.454 272.587 280.605 272.98 280.605 273.471C280.605 273.962 280.454 274.358 280.154 274.659C279.86 274.952 279.479 275.099 279.01 275.099C278.548 275.099 278.163 274.952 277.855 274.659C277.554 274.358 277.404 273.962 277.404 273.471C277.404 272.98 277.554 272.587 277.855 272.294C278.155 272.001 278.54 271.854 279.01 271.854ZM278.108 273.471C278.108 273.764 278.188 274.003 278.35 274.186C278.518 274.369 278.738 274.461 279.01 274.461C279.274 274.461 279.486 274.369 279.648 274.186C279.816 274.003 279.901 273.764 279.901 273.471C279.901 273.178 279.816 272.939 279.648 272.756C279.486 272.573 279.274 272.481 279.01 272.481C278.738 272.481 278.518 272.573 278.35 272.756C278.188 272.939 278.108 273.178 278.108 273.471Z" fill="black"/>
<rect opacity="0.1" x="76.5" y="234.5" width="51" height="51" rx="15.5" stroke="black"/>
<path fill-rule="evenodd" clip-rule="evenodd" d="M107.829 255.023L105.106 252.167C105.055 252.113 104.995 252.071 104.928 252.043C104.863 252.015 104.792 252 104.721 252H97.6404C96.7379 252 96.0063 252.767 96.0063 253.714V266.282C96.0063 267.228 96.7379 267.996 97.6404 267.996H106.355C107.258 267.996 107.989 267.228 107.989 266.282V255.428C107.989 255.276 107.931 255.131 107.829 255.023ZM105.266 253.95L106.13 254.856H105.266V253.95ZM106.355 266.853C106.656 266.853 106.9 266.597 106.9 266.282H106.9V255.999H104.721C104.42 255.999 104.177 255.743 104.177 255.428V253.143H97.6404C97.3396 253.143 97.0957 253.398 97.0957 253.714V266.282C97.0957 266.597 97.3396 266.853 97.6404 266.853H106.355Z" fill="black"/>
<path opacity="0.2" d="M145 272.5H245" stroke="url(#paint4_linear_92_13)" stroke-width="4" stroke-linecap="round"/>
<path d="M145 272.5H177" stroke="url(#paint5_linear_92_13)" stroke-width="4" stroke-linecap="round"/>
<path d="M151.997 327.694C152.872 327.694 153.561 327.967 154.064 328.513C154.575 329.05 154.831 329.817 154.831 330.814V335H153.011V331.022C153.011 330.467 152.868 330.043 152.582 329.748C152.305 329.445 151.919 329.293 151.425 329.293C150.914 329.293 150.506 329.453 150.203 329.774C149.9 330.095 149.748 330.563 149.748 331.178V335H147.928V331.022C147.928 330.467 147.785 330.043 147.499 329.748C147.222 329.445 146.836 329.293 146.342 329.293C145.831 329.293 145.423 329.453 145.12 329.774C144.817 330.095 144.665 330.563 144.665 331.178V335H142.832V327.798H144.665V329.163C144.856 328.695 145.155 328.335 145.562 328.084C145.978 327.824 146.459 327.694 147.005 327.694C147.586 327.694 148.088 327.833 148.513 328.11C148.946 328.387 149.271 328.786 149.488 329.306C149.713 328.812 150.047 328.422 150.489 328.136C150.94 327.841 151.442 327.694 151.997 327.694ZM163.214 331.126C163.214 331.308 163.193 331.516 163.149 331.75H157.871C157.897 332.391 158.071 332.864 158.391 333.167C158.712 333.47 159.111 333.622 159.587 333.622C160.012 333.622 160.363 333.518 160.64 333.31C160.926 333.102 161.108 332.82 161.186 332.465H163.123C163.028 332.968 162.824 333.418 162.512 333.817C162.2 334.216 161.797 334.528 161.303 334.753C160.818 334.978 160.276 335.091 159.678 335.091C158.976 335.091 158.352 334.944 157.806 334.649C157.26 334.346 156.836 333.917 156.532 333.362C156.229 332.807 156.077 332.153 156.077 331.399C156.077 330.645 156.229 329.991 156.532 329.436C156.836 328.873 157.26 328.444 157.806 328.149C158.352 327.854 158.976 327.707 159.678 327.707C160.389 327.707 161.009 327.854 161.537 328.149C162.075 328.444 162.486 328.851 162.772 329.371C163.067 329.882 163.214 330.467 163.214 331.126ZM161.368 330.944C161.394 330.355 161.238 329.908 160.9 329.605C160.571 329.302 160.164 329.15 159.678 329.15C159.184 329.15 158.768 329.302 158.43 329.605C158.092 329.908 157.906 330.355 157.871 330.944H161.368ZM166.999 327.707C167.874 327.707 168.576 327.928 169.105 328.37C169.633 328.812 169.963 329.401 170.093 330.138H168.377C168.307 329.791 168.151 329.514 167.909 329.306C167.666 329.098 167.35 328.994 166.96 328.994C166.648 328.994 166.405 329.068 166.232 329.215C166.058 329.362 165.972 329.562 165.972 329.813C165.972 330.012 166.041 330.173 166.18 330.294C166.318 330.415 166.492 330.511 166.7 330.58C166.908 330.649 167.207 330.732 167.597 330.827C168.143 330.948 168.585 331.078 168.923 331.217C169.269 331.347 169.564 331.559 169.807 331.854C170.058 332.14 170.184 332.53 170.184 333.024C170.184 333.639 169.941 334.138 169.456 334.519C168.979 334.9 168.333 335.091 167.519 335.091C166.583 335.091 165.833 334.883 165.27 334.467C164.706 334.042 164.364 333.44 164.243 332.66H165.998C166.041 333.015 166.197 333.297 166.466 333.505C166.734 333.704 167.085 333.804 167.519 333.804C167.831 333.804 168.069 333.73 168.234 333.583C168.398 333.427 168.481 333.228 168.481 332.985C168.481 332.777 168.407 332.608 168.26 332.478C168.121 332.348 167.943 332.248 167.727 332.179C167.519 332.11 167.22 332.027 166.83 331.932C166.292 331.811 165.855 331.689 165.517 331.568C165.187 331.438 164.901 331.234 164.659 330.957C164.425 330.68 164.308 330.298 164.308 329.813C164.308 329.189 164.546 328.682 165.023 328.292C165.499 327.902 166.158 327.707 166.999 327.707ZM174.032 327.707C174.907 327.707 175.609 327.928 176.138 328.37C176.666 328.812 176.996 329.401 177.126 330.138H175.41C175.34 329.791 175.184 329.514 174.942 329.306C174.699 329.098 174.383 328.994 173.993 328.994C173.681 328.994 173.438 329.068 173.265 329.215C173.091 329.362 173.005 329.562 173.005 329.813C173.005 330.012 173.074 330.173 173.213 330.294C173.351 330.415 173.525 330.511 173.733 330.58C173.941 330.649 174.24 330.732 174.63 330.827C175.176 330.948 175.618 331.078 175.956 331.217C176.302 331.347 176.597 331.559 176.84 331.854C177.091 332.14 177.217 332.53 177.217 333.024C177.217 333.639 176.974 334.138 176.489 334.519C176.012 334.9 175.366 335.091 174.552 335.091C173.616 335.091 172.866 334.883 172.303 334.467C171.739 334.042 171.397 333.44 171.276 332.66H173.031C173.074 333.015 173.23 333.297 173.499 333.505C173.767 333.704 174.118 333.804 174.552 333.804C174.864 333.804 175.102 333.73 175.267 333.583C175.431 333.427 175.514 333.228 175.514 332.985C175.514 332.777 175.44 332.608 175.293 332.478C175.154 332.348 174.976 332.248 174.76 332.179C174.552 332.11 174.253 332.027 173.863 331.932C173.325 331.811 172.888 331.689 172.55 331.568C172.22 331.438 171.934 331.234 171.692 330.957C171.458 330.68 171.341 330.298 171.341 329.813C171.341 329.189 171.579 328.682 172.056 328.292C172.532 327.902 173.191 327.707 174.032 327.707ZM181.403 327.707C182.01 327.707 182.53 327.85 182.963 328.136C183.396 328.422 183.704 328.808 183.886 329.293V327.798H185.706V335H183.886V333.492C183.704 333.977 183.396 334.367 182.963 334.662C182.53 334.948 182.01 335.091 181.403 335.091C180.796 335.091 180.25 334.944 179.765 334.649C179.28 334.354 178.898 333.93 178.621 333.375C178.352 332.812 178.218 332.153 178.218 331.399C178.218 330.645 178.352 329.991 178.621 329.436C178.898 328.873 179.28 328.444 179.765 328.149C180.25 327.854 180.796 327.707 181.403 327.707ZM181.975 329.306C181.403 329.306 180.944 329.492 180.597 329.865C180.25 330.238 180.077 330.749 180.077 331.399C180.077 332.049 180.25 332.56 180.597 332.933C180.944 333.297 181.403 333.479 181.975 333.479C182.53 333.479 182.985 333.293 183.34 332.92C183.704 332.539 183.886 332.032 183.886 331.399C183.886 330.758 183.704 330.251 183.34 329.878C182.985 329.497 182.53 329.306 181.975 329.306ZM190.188 327.707C190.795 327.707 191.315 327.85 191.748 328.136C192.181 328.422 192.489 328.808 192.671 329.293V327.798H194.491V335.026C194.491 335.693 194.357 336.291 194.088 336.82C193.828 337.357 193.434 337.778 192.905 338.081C192.385 338.384 191.752 338.536 191.007 338.536C189.967 338.536 189.126 338.289 188.485 337.795C187.844 337.301 187.454 336.629 187.315 335.78H189.122C189.226 336.144 189.425 336.426 189.72 336.625C190.023 336.833 190.409 336.937 190.877 336.937C191.414 336.937 191.848 336.777 192.177 336.456C192.506 336.144 192.671 335.667 192.671 335.026V333.492C192.489 333.977 192.181 334.367 191.748 334.662C191.315 334.948 190.795 335.091 190.188 335.091C189.581 335.091 189.035 334.944 188.55 334.649C188.065 334.354 187.683 333.93 187.406 333.375C187.137 332.812 187.003 332.153 187.003 331.399C187.003 330.645 187.137 329.991 187.406 329.436C187.683 328.873 188.065 328.444 188.55 328.149C189.035 327.854 189.581 327.707 190.188 327.707ZM190.76 329.306C190.188 329.306 189.729 329.492 189.382 329.865C189.035 330.238 188.862 330.749 188.862 331.399C188.862 332.049 189.035 332.56 189.382 332.933C189.729 333.297 190.188 333.479 190.76 333.479C191.315 333.479 191.77 333.293 192.125 332.92C192.489 332.539 192.671 332.032 192.671 331.399C192.671 330.758 192.489 330.251 192.125 329.878C191.77 329.497 191.315 329.306 190.76 329.306ZM202.925 331.126C202.925 331.308 202.904 331.516 202.86 331.75H197.582C197.608 332.391 197.782 332.864 198.102 333.167C198.423 333.47 198.822 333.622 199.298 333.622C199.723 333.622 200.074 333.518 200.351 333.31C200.637 333.102 200.819 332.82 200.897 332.465H202.834C202.739 332.968 202.535 333.418 202.223 333.817C201.911 334.216 201.508 334.528 201.014 334.753C200.529 334.978 199.987 335.091 199.389 335.091C198.687 335.091 198.063 334.944 197.517 334.649C196.971 334.346 196.547 333.917 196.243 333.362C195.94 332.807 195.788 332.153 195.788 331.399C195.788 330.645 195.94 329.991 196.243 329.436C196.547 328.873 196.971 328.444 197.517 328.149C198.063 327.854 198.687 327.707 199.389 327.707C200.1 327.707 200.72 327.854 201.248 328.149C201.786 328.444 202.197 328.851 202.483 329.371C202.778 329.882 202.925 330.467 202.925 331.126ZM201.079 330.944C201.105 330.355 200.949 329.908 200.611 329.605C200.282 329.302 199.875 329.15 199.389 329.15C198.895 329.15 198.479 329.302 198.141 329.605C197.803 329.908 197.617 330.355 197.582 330.944H201.079ZM205.748 333.089V335H203.772V333.089H205.748ZM209.79 327.707C210.396 327.707 210.912 327.85 211.337 328.136C211.77 328.422 212.082 328.808 212.273 329.293V325.38H214.093V335H212.273V333.492C212.082 333.977 211.77 334.367 211.337 334.662C210.912 334.948 210.396 335.091 209.79 335.091C209.183 335.091 208.637 334.944 208.152 334.649C207.666 334.354 207.285 333.93 207.008 333.375C206.739 332.812 206.605 332.153 206.605 331.399C206.605 330.645 206.739 329.991 207.008 329.436C207.285 328.873 207.666 328.444 208.152 328.149C208.637 327.854 209.183 327.707 209.79 327.707ZM210.362 329.306C209.79 329.306 209.33 329.492 208.984 329.865C208.637 330.238 208.464 330.749 208.464 331.399C208.464 332.049 208.637 332.56 208.984 332.933C209.33 333.297 209.79 333.479 210.362 333.479C210.916 333.479 211.371 333.293 211.727 332.92C212.091 332.539 212.273 332.032 212.273 331.399C212.273 330.758 212.091 330.251 211.727 329.878C211.371 329.497 210.916 329.306 210.362 329.306ZM219.082 327.707C219.784 327.707 220.412 327.854 220.967 328.149C221.53 328.444 221.972 328.873 222.293 329.436C222.614 329.991 222.774 330.645 222.774 331.399C222.774 332.153 222.614 332.807 222.293 333.362C221.972 333.917 221.53 334.346 220.967 334.649C220.412 334.944 219.784 335.091 219.082 335.091C218.38 335.091 217.747 334.944 217.184 334.649C216.629 334.346 216.192 333.917 215.871 333.362C215.55 332.807 215.39 332.153 215.39 331.399C215.39 330.645 215.55 329.991 215.871 329.436C216.192 328.873 216.629 328.444 217.184 328.149C217.747 327.854 218.38 327.707 219.082 327.707ZM219.082 329.293C218.571 329.293 218.137 329.475 217.782 329.839C217.427 330.194 217.249 330.714 217.249 331.399C217.249 332.084 217.427 332.608 217.782 332.972C218.137 333.327 218.571 333.505 219.082 333.505C219.593 333.505 220.027 333.327 220.382 332.972C220.737 332.608 220.915 332.084 220.915 331.399C220.915 330.714 220.737 330.194 220.382 329.839C220.027 329.475 219.593 329.293 219.082 329.293ZM227.306 327.707C228.234 327.707 229.005 327.958 229.62 328.461C230.244 328.964 230.634 329.648 230.79 330.515H228.853C228.775 330.134 228.598 329.835 228.32 329.618C228.043 329.393 227.692 329.28 227.267 329.28C226.782 329.28 226.375 329.462 226.045 329.826C225.725 330.181 225.564 330.706 225.564 331.399C225.564 332.092 225.725 332.621 226.045 332.985C226.375 333.34 226.782 333.518 227.267 333.518C227.692 333.518 228.043 333.41 228.32 333.193C228.598 332.968 228.775 332.664 228.853 332.283H230.79C230.634 333.15 230.244 333.834 229.62 334.337C229.005 334.84 228.234 335.091 227.306 335.091C226.604 335.091 225.98 334.944 225.434 334.649C224.888 334.346 224.464 333.917 224.16 333.362C223.857 332.807 223.705 332.153 223.705 331.399C223.705 330.645 223.857 329.991 224.16 329.436C224.464 328.873 224.888 328.444 225.434 328.149C225.98 327.854 226.604 327.707 227.306 327.707ZM236.474 335L234.836 332.686L233.458 335H231.443L233.822 331.243L231.391 327.798H233.445L235.044 330.073L236.422 327.798H238.437L236.019 331.451L238.528 335H236.474Z" fill="black"/>
<path opacity="0.6" d="M264.462 354.23C265.709 353.394 266.706 352.565 267.454 351.744C268.202 350.915 268.576 350.145 268.576 349.434C268.576 348.994 268.462 348.642 268.235 348.378C268.015 348.107 267.656 347.971 267.157 347.971C266.644 347.971 266.255 348.136 265.991 348.466C265.727 348.789 265.58 349.236 265.551 349.808H264.561C264.612 348.943 264.88 348.279 265.364 347.817C265.848 347.348 266.471 347.113 267.234 347.113C267.96 347.113 268.536 347.307 268.961 347.696C269.386 348.085 269.599 348.635 269.599 349.346C269.599 349.933 269.408 350.53 269.027 351.139C268.653 351.74 268.18 352.301 267.608 352.822C267.043 353.335 266.46 353.772 265.859 354.131H269.797V354.956H264.462V354.23ZM270.384 348.18V347.245H272.606V355H271.55V348.18H270.384ZM275.368 347.135C275.83 347.135 276.212 347.285 276.512 347.586C276.82 347.879 276.974 348.272 276.974 348.763C276.974 349.254 276.824 349.647 276.523 349.94C276.223 350.233 275.838 350.38 275.368 350.38C274.899 350.38 274.514 350.233 274.213 349.94C273.913 349.647 273.762 349.254 273.762 348.763C273.762 348.272 273.913 347.879 274.213 347.586C274.514 347.285 274.899 347.135 275.368 347.135ZM279.746 347.234L275.291 355H274.301L278.756 347.234H279.746ZM274.466 348.763C274.466 349.056 274.547 349.295 274.708 349.478C274.877 349.661 275.093 349.753 275.357 349.753C275.629 349.753 275.849 349.661 276.017 349.478C276.186 349.295 276.27 349.056 276.27 348.763C276.27 348.47 276.186 348.231 276.017 348.048C275.849 347.865 275.629 347.773 275.357 347.773C275.093 347.773 274.877 347.865 274.708 348.048C274.547 348.231 274.466 348.47 274.466 348.763ZM278.69 351.854C279.16 351.854 279.541 352.001 279.834 352.294C280.135 352.587 280.285 352.98 280.285 353.471C280.285 353.962 280.135 354.358 279.834 354.659C279.541 354.952 279.16 355.099 278.69 355.099C278.228 355.099 277.843 354.952 277.535 354.659C277.235 354.358 277.084 353.962 277.084 353.471C277.084 352.98 277.235 352.587 277.535 352.294C277.836 352.001 278.221 351.854 278.69 351.854ZM277.788 353.471C277.788 353.764 277.869 354.003 278.03 354.186C278.199 354.369 278.419 354.461 278.69 354.461C278.954 354.461 279.167 354.369 279.328 354.186C279.497 354.003 279.581 353.764 279.581 353.471C279.581 353.178 279.497 352.939 279.328 352.756C279.167 352.573 278.954 352.481 278.69 352.481C278.419 352.481 278.199 352.573 278.03 352.756C277.869 352.939 277.788 353.178 277.788 353.471Z" fill="black"/>
<rect opacity="0.1" x="76.5" y="314.5" width="51" height="51" rx="15.5" stroke="black"/>
<path fill-rule="evenodd" clip-rule="evenodd" d="M107.829 335.023L105.106 332.167C105.055 332.113 104.995 332.071 104.928 332.043C104.863 332.015 104.792 332 104.721 332H97.6404C96.7379 332 96.0063 332.767 96.0063 333.714V346.282C96.0063 347.228 96.7379 347.996 97.6404 347.996H106.355C107.258 347.996 107.989 347.228 107.989 346.282V335.428C107.989 335.276 107.931 335.131 107.829 335.023ZM105.266 333.95L106.13 334.856H105.266V333.95ZM106.355 346.853C106.656 346.853 106.9 346.597 106.9 346.282H106.9V335.999H104.721C104.42 335.999 104.177 335.743 104.177 335.428V333.143H97.6404C97.3396 333.143 97.0957 333.398 97.0957 333.714V346.282C97.0957 346.597 97.3396 346.853 97.6404 346.853H106.355Z" fill="black"/>
<path opacity="0.2" d="M145 352.5H245" stroke="url(#paint6_linear_92_13)" stroke-width="4" stroke-linecap="round"/>
<path d="M145 352.5H166" stroke="url(#paint7_linear_92_13)" stroke-width="4" stroke-linecap="round"/>
<defs>
<filter id="filter0_d_92_13" x="0" y="0" width="360" height="458" filterUnits="userSpaceOnUse" color-interpolation-filters="sRGB">
<feFlood flood-opacity="0" result="BackgroundImageFix"/>
<feColorMatrix in="SourceAlpha" type="matrix" values="0 0 0 0 0 0 0 0 0 0 0 0 0 0 0 0 0 0 127 0" result="hardAlpha"/>
<feOffset dy="20"/>
<feGaussianBlur stdDeviation="20"/>
<feColorMatrix type="matrix" values="0 0 0 0 0 0 0 0 0 0 0 0 0 0 0 0 0 0 0.1 0"/>
<feBlend mode="normal" in2="BackgroundImageFix" result="effect1_dropShadow_92_13"/>
<feBlend mode="normal" in="SourceGraphic" in2="effect1_dropShadow_92_13" result="shape"/>
</filter>
<linearGradient id="paint0_linear_92_13" x1="171" y1="52" x2="171" y2="62.2794" gradientUnits="userSpaceOnUse">
<stop stop-color="#8643FF"/>
<stop offset="1" stop-color="#4136F1"/>
</linearGradient>
<linearGradient id="paint1_linear_92_13" x1="171" y1="55.0994" x2="171" y2="72.0001" gradientUnits="userSpaceOnUse">
<stop stop-color="#8643FF"/>
<stop offset="1" stop-color="#4136F1"/>
</linearGradient>
<linearGradient id="paint2_linear_92_13" x1="144.318" y1="193.007" x2="245.696" y2="193.007" gradientUnits="userSpaceOnUse">
<stop stop-color="#4136F1"/>
<stop offset="1" stop-color="#8743FF"/>
</linearGradient>
<linearGradient id="paint3_linear_92_13" x1="144.659" y1="193.007" x2="195.348" y2="193.007" gradientUnits="userSpaceOnUse">
<stop stop-color="#4136F1"/>
<stop offset="1" stop-color="#8743FF"/>
</linearGradient>
<linearGradient id="paint4_linear_92_13" x1="144.318" y1="273.007" x2="245.696" y2="273.007" gradientUnits="userSpaceOnUse">
<stop stop-color="#4136F1"/>
<stop offset="1" stop-color="#8743FF"/>
</linearGradient>
<linearGradient id="paint5_linear_92_13" x1="144.782" y1="273.007" x2="177.223" y2="273.007" gradientUnits="userSpaceOnUse">
<stop stop-color="#4136F1"/>
<stop offset="1" stop-color="#8743FF"/>
</linearGradient>
<linearGradient id="paint6_linear_92_13" x1="144.318" y1="353.007" x2="245.696" y2="353.007" gradientUnits="userSpaceOnUse">
<stop stop-color="#4136F1"/>
<stop offset="1" stop-color="#8743FF"/>
</linearGradient>
<linearGradient id="paint7_linear_92_13" x1="144.857" y1="353.007" x2="166.146" y2="353.007" gradientUnits="userSpaceOnUse">
<stop stop-color="#4136F1"/>
<stop offset="1" stop-color="#8743FF"/>
</linearGradient>
</defs>
</svg>
