<svg width="123" height="29" viewBox="0 0 123 29" fill="none" xmlns="http://www.w3.org/2000/svg">
<circle cx="14.5" cy="14.5" r="14.5" fill="black"/>
<path d="M24.96 18.76H17.96L16.58 22H13.9L20.2 8H22.76L29.08 22H26.36L24.96 18.76ZM24.1 16.72L21.46 10.6L18.84 16.72H24.1Z" fill="white"/>
<path d="M35.4205 22.14C34.3405 22.14 33.3671 21.9067 32.5005 21.44C31.6338 20.9733 30.9538 20.3267 30.4605 19.5C29.9805 18.66 29.7405 17.7133 29.7405 16.66C29.7405 15.6067 29.9805 14.6667 30.4605 13.84C30.9538 13.0133 31.6338 12.3667 32.5005 11.9C33.3671 11.4333 34.3405 11.2 35.4205 11.2C36.5138 11.2 37.4938 11.4333 38.3605 11.9C39.2271 12.3667 39.9005 13.0133 40.3805 13.84C40.8738 14.6667 41.1205 15.6067 41.1205 16.66C41.1205 17.7133 40.8738 18.66 40.3805 19.5C39.9005 20.3267 39.2271 20.9733 38.3605 21.44C37.4938 21.9067 36.5138 22.14 35.4205 22.14ZM35.4205 20C36.3405 20 37.1005 19.6933 37.7005 19.08C38.3005 18.4667 38.6005 17.66 38.6005 16.66C38.6005 15.66 38.3005 14.8533 37.7005 14.24C37.1005 13.6267 36.3405 13.32 35.4205 13.32C34.5005 13.32 33.7405 13.6267 33.1405 14.24C32.5538 14.8533 32.2605 15.66 32.2605 16.66C32.2605 17.66 32.5538 18.4667 33.1405 19.08C33.7405 19.6933 34.5005 20 35.4205 20ZM43.5111 7.16H46.0111V22H43.5111V7.16ZM56.2397 21.42C55.9464 21.66 55.5864 21.84 55.1597 21.96C54.7464 22.08 54.3064 22.14 53.8397 22.14C52.6664 22.14 51.7597 21.8333 51.1197 21.22C50.4797 20.6067 50.1597 19.7133 50.1597 18.54V13.4H48.3997V11.4H50.1597V8.96H52.6597V11.4H55.5197V13.4H52.6597V18.48C52.6597 19 52.7864 19.4 53.0397 19.68C53.293 19.9467 53.6597 20.08 54.1397 20.08C54.6997 20.08 55.1664 19.9333 55.5397 19.64L56.2397 21.42ZM70.5436 22.2C69.1303 22.2 67.8503 21.8933 66.7036 21.28C65.5703 20.6533 64.6769 19.7933 64.0236 18.7C63.3836 17.6067 63.0636 16.3733 63.0636 15C63.0636 13.6267 63.3903 12.3933 64.0436 11.3C64.6969 10.2067 65.5903 9.35333 66.7236 8.74C67.8703 8.11333 69.1503 7.8 70.5636 7.8C71.7103 7.8 72.7569 8 73.7036 8.4C74.6503 8.8 75.4503 9.38 76.1036 10.14L74.4236 11.72C73.4103 10.6267 72.1636 10.08 70.6836 10.08C69.7236 10.08 68.8636 10.2933 68.1036 10.72C67.3436 11.1333 66.7503 11.7133 66.3236 12.46C65.8969 13.2067 65.6836 14.0533 65.6836 15C65.6836 15.9467 65.8969 16.7933 66.3236 17.54C66.7503 18.2867 67.3436 18.8733 68.1036 19.3C68.8636 19.7133 69.7236 19.92 70.6836 19.92C72.1636 19.92 73.4103 19.3667 74.4236 18.26L76.1036 19.86C75.4503 20.62 74.6436 21.2 73.6836 21.6C72.7369 22 71.6903 22.2 70.5436 22.2ZM78.3548 7.16H80.8548V22H78.3548V7.16ZM88.9361 22.14C87.8561 22.14 86.8828 21.9067 86.0161 21.44C85.1494 20.9733 84.4694 20.3267 83.9761 19.5C83.4961 18.66 83.2561 17.7133 83.2561 16.66C83.2561 15.6067 83.4961 14.6667 83.9761 13.84C84.4694 13.0133 85.1494 12.3667 86.0161 11.9C86.8828 11.4333 87.8561 11.2 88.9361 11.2C90.0294 11.2 91.0094 11.4333 91.8761 11.9C92.7428 12.3667 93.4161 13.0133 93.8961 13.84C94.3894 14.6667 94.6361 15.6067 94.6361 16.66C94.6361 17.7133 94.3894 18.66 93.8961 19.5C93.4161 20.3267 92.7428 20.9733 91.8761 21.44C91.0094 21.9067 90.0294 22.14 88.9361 22.14ZM88.9361 20C89.8561 20 90.6161 19.6933 91.2161 19.08C91.8161 18.4667 92.1161 17.66 92.1161 16.66C92.1161 15.66 91.8161 14.8533 91.2161 14.24C90.6161 13.6267 89.8561 13.32 88.9361 13.32C88.0161 13.32 87.2561 13.6267 86.6561 14.24C86.0694 14.8533 85.7761 15.66 85.7761 16.66C85.7761 17.66 86.0694 18.4667 86.6561 19.08C87.2561 19.6933 88.0161 20 88.9361 20ZM107.367 11.32V22H104.987V20.64C104.587 21.12 104.087 21.4933 103.487 21.76C102.887 22.0133 102.24 22.14 101.547 22.14C100.12 22.14 98.9934 21.7467 98.1667 20.96C97.3534 20.16 96.9467 18.98 96.9467 17.42V11.32H99.4467V17.08C99.4467 18.04 99.6601 18.76 100.087 19.24C100.527 19.7067 101.147 19.94 101.947 19.94C102.84 19.94 103.547 19.6667 104.067 19.12C104.6 18.56 104.867 17.76 104.867 16.72V11.32H107.367ZM121.1 7.16V22H118.7V20.62C118.287 21.1267 117.773 21.5067 117.16 21.76C116.56 22.0133 115.893 22.14 115.16 22.14C114.133 22.14 113.207 21.9133 112.38 21.46C111.567 21.0067 110.927 20.3667 110.46 19.54C109.993 18.7 109.76 17.74 109.76 16.66C109.76 15.58 109.993 14.6267 110.46 13.8C110.927 12.9733 111.567 12.3333 112.38 11.88C113.207 11.4267 114.133 11.2 115.16 11.2C115.867 11.2 116.513 11.32 117.1 11.56C117.687 11.8 118.187 12.16 118.6 12.64V7.16H121.1ZM115.46 20C116.06 20 116.6 19.8667 117.08 19.6C117.56 19.32 117.94 18.9267 118.22 18.42C118.5 17.9133 118.64 17.3267 118.64 16.66C118.64 15.9933 118.5 15.4067 118.22 14.9C117.94 14.3933 117.56 14.0067 117.08 13.74C116.6 13.46 116.06 13.32 115.46 13.32C114.86 13.32 114.32 13.46 113.84 13.74C113.36 14.0067 112.98 14.3933 112.7 14.9C112.42 15.4067 112.28 15.9933 112.28 16.66C112.28 17.3267 112.42 17.9133 112.7 18.42C112.98 18.9267 113.36 19.32 113.84 19.6C114.32 19.8667 114.86 20 115.46 20Z" fill="black"/>
</svg>
