<svg width="180" height="180" viewBox="0 0 180 180" fill="none" xmlns="http://www.w3.org/2000/svg">
<g filter="url(#filter0_d_116_47)">
<rect x="40" y="15" width="100" height="100" rx="24" fill="white"/>
</g>
<path d="M74.29 57.76H64.57V62.89C64.99 62.37 65.59 61.95 66.37 61.63C67.15 61.29 67.98 61.12 68.86 61.12C70.46 61.12 71.77 61.47 72.79 62.17C73.81 62.87 74.55 63.77 75.01 64.87C75.47 65.95 75.7 67.11 75.7 68.35C75.7 70.65 75.04 72.5 73.72 73.9C72.42 75.3 70.56 76 68.14 76C65.86 76 64.04 75.43 62.68 74.29C61.32 73.15 60.55 71.66 60.37 69.82H64.45C64.63 70.62 65.03 71.26 65.65 71.74C66.29 72.22 67.1 72.46 68.08 72.46C69.26 72.46 70.15 72.09 70.75 71.35C71.35 70.61 71.65 69.63 71.65 68.41C71.65 67.17 71.34 66.23 70.72 65.59C70.12 64.93 69.23 64.6 68.05 64.6C67.21 64.6 66.51 64.81 65.95 65.23C65.39 65.65 64.99 66.21 64.75 66.91H60.73V54.07H74.29V57.76ZM90.2366 59.59C90.0366 58.75 89.6866 58.12 89.1866 57.7C88.7066 57.28 88.0066 57.07 87.0866 57.07C85.7066 57.07 84.6866 57.63 84.0266 58.75C83.3866 59.85 83.0566 61.65 83.0366 64.15C83.5166 63.35 84.2166 62.73 85.1366 62.29C86.0566 61.83 87.0566 61.6 88.1366 61.6C89.4366 61.6 90.5866 61.88 91.5866 62.44C92.5866 63 93.3666 63.82 93.9266 64.9C94.4866 65.96 94.7666 67.24 94.7666 68.74C94.7666 70.16 94.4766 71.43 93.8966 72.55C93.3366 73.65 92.5066 74.51 91.4066 75.13C90.3066 75.75 88.9966 76.06 87.4766 76.06C85.3966 76.06 83.7566 75.6 82.5566 74.68C81.3766 73.76 80.5466 72.48 80.0666 70.84C79.6066 69.18 79.3766 67.14 79.3766 64.72C79.3766 61.06 80.0066 58.3 81.2666 56.44C82.5266 54.56 84.5166 53.62 87.2366 53.62C89.3366 53.62 90.9666 54.19 92.1266 55.33C93.2866 56.47 93.9566 57.89 94.1366 59.59H90.2366ZM87.1766 65.05C86.1166 65.05 85.2266 65.36 84.5066 65.98C83.7866 66.6 83.4266 67.5 83.4266 68.68C83.4266 69.86 83.7566 70.79 84.4166 71.47C85.0966 72.15 86.0466 72.49 87.2666 72.49C88.3466 72.49 89.1966 72.16 89.8166 71.5C90.4566 70.84 90.7766 69.95 90.7766 68.83C90.7766 67.67 90.4666 66.75 89.8466 66.07C89.2466 65.39 88.3566 65.05 87.1766 65.05ZM97.6061 59.5C97.6061 57.98 98.0461 56.79 98.9261 55.93C99.8261 55.07 100.976 54.64 102.376 54.64C103.776 54.64 104.916 55.07 105.796 55.93C106.696 56.79 107.146 57.98 107.146 59.5C107.146 61.04 106.696 62.24 105.796 63.1C104.916 63.96 103.776 64.39 102.376 64.39C100.976 64.39 99.8261 63.96 98.9261 63.1C98.0461 62.24 97.6061 61.04 97.6061 59.5ZM116.866 55L105.076 76H100.996L112.756 55H116.866ZM102.346 57.16C101.246 57.16 100.696 57.94 100.696 59.5C100.696 61.08 101.246 61.87 102.346 61.87C102.886 61.87 103.306 61.68 103.606 61.3C103.906 60.9 104.056 60.3 104.056 59.5C104.056 57.94 103.486 57.16 102.346 57.16ZM110.776 71.47C110.776 69.93 111.216 68.74 112.096 67.9C112.996 67.04 114.146 66.61 115.546 66.61C116.946 66.61 118.076 67.04 118.936 67.9C119.816 68.74 120.256 69.93 120.256 71.47C120.256 73.01 119.816 74.21 118.936 75.07C118.076 75.93 116.946 76.36 115.546 76.36C114.126 76.36 112.976 75.93 112.096 75.07C111.216 74.21 110.776 73.01 110.776 71.47ZM115.516 69.13C114.376 69.13 113.806 69.91 113.806 71.47C113.806 73.05 114.376 73.84 115.516 73.84C116.636 73.84 117.196 73.05 117.196 71.47C117.196 69.91 116.636 69.13 115.516 69.13Z" fill="black"/>
<defs>
<filter id="filter0_d_116_47" x="0" y="0" width="180" height="180" filterUnits="userSpaceOnUse" color-interpolation-filters="sRGB">
<feFlood flood-opacity="0" result="BackgroundImageFix"/>
<feColorMatrix in="SourceAlpha" type="matrix" values="0 0 0 0 0 0 0 0 0 0 0 0 0 0 0 0 0 0 127 0" result="hardAlpha"/>
<feOffset dy="25"/>
<feGaussianBlur stdDeviation="20"/>
<feColorMatrix type="matrix" values="0 0 0 0 0 0 0 0 0 0 0 0 0 0 0 0 0 0 0.1 0"/>
<feBlend mode="normal" in2="BackgroundImageFix" result="effect1_dropShadow_116_47"/>
<feBlend mode="normal" in="SourceGraphic" in2="effect1_dropShadow_116_47" result="shape"/>
</filter>
</defs>
</svg>
