<svg width="376" height="180" viewBox="0 0 376 180" fill="none" xmlns="http://www.w3.org/2000/svg">
<g filter="url(#filter0_d_92_54)">
<rect x="40" y="15" width="296" height="100" rx="24" fill="white"/>
</g>
<path d="M208 31.5H318" stroke="url(#paint0_linear_92_54)" stroke-width="4" stroke-linecap="round"/>
<path d="M208 48.5H278" stroke="url(#paint1_linear_92_54)" stroke-width="4" stroke-linecap="round"/>
<path d="M208 65.5H264" stroke="url(#paint2_linear_92_54)" stroke-width="4" stroke-linecap="round"/>
<path d="M208 82.5H239" stroke="url(#paint3_linear_92_54)" stroke-width="4" stroke-linecap="round"/>
<path d="M208 99.5H220" stroke="url(#paint4_linear_92_54)" stroke-width="4" stroke-linecap="round"/>
<path d="M59.56 65.32V60.64L73.08 42.44H79.12V60.44H82.8V65.32H79.12V71H73.44V65.32H59.56ZM73.88 49.04L65.32 60.44H73.88V49.04ZM91.3338 65.12V71H85.2538V65.12H91.3338ZM94.0913 65.32V60.64L107.611 42.44H113.651V60.44H117.331V65.32H113.651V71H107.971V65.32H94.0913ZM108.411 49.04L99.8513 60.44H108.411V49.04Z" fill="black"/>
<path fill-rule="evenodd" clip-rule="evenodd" d="M133.933 48L136.076 52.2787L140.867 52.969L137.4 56.2976L138.218 61L133.933 58.7787L129.649 61L130.467 56.2976L127 52.969L131.791 52.2787L133.933 48Z" fill="#E67100" stroke="#E67100" stroke-width="2" stroke-linecap="round" stroke-linejoin="round"/>
<path opacity="0.6" d="M62.588 80.312C63.132 80.312 63.6 80.408 63.992 80.6C64.384 80.792 64.68 81.056 64.88 81.392C65.08 81.728 65.18 82.108 65.18 82.532C65.18 83.06 65.024 83.504 64.712 83.864C64.408 84.224 63.96 84.44 63.368 84.512V84.584C63.984 84.744 64.464 84.992 64.808 85.328C65.16 85.664 65.336 86.128 65.336 86.72C65.336 87.416 65.104 87.984 64.64 88.424C64.176 88.864 63.508 89.084 62.636 89.084C61.764 89.084 61.056 88.86 60.512 88.412C59.976 87.956 59.66 87.292 59.564 86.42H60.644C60.716 86.948 60.916 87.368 61.244 87.68C61.58 87.992 62.032 88.148 62.6 88.148C63.136 88.148 63.548 88.012 63.836 87.74C64.124 87.46 64.268 87.1 64.268 86.66C64.268 86.132 64.06 85.732 63.644 85.46C63.236 85.18 62.652 85.04 61.892 85.04H61.604V84.128H61.892C63.364 84.128 64.1 83.636 64.1 82.652C64.1 82.22 63.964 81.876 63.692 81.62C63.42 81.364 63.044 81.236 62.564 81.236C62.084 81.236 61.68 81.376 61.352 81.656C61.024 81.928 60.832 82.332 60.776 82.868H59.708C59.764 82.068 60.04 81.444 60.536 80.996C61.04 80.54 61.724 80.312 62.588 80.312ZM66.5704 88.16C67.9304 87.248 69.0184 86.344 69.8344 85.448C70.6504 84.544 71.0584 83.704 71.0584 82.928C71.0584 82.448 70.9344 82.064 70.6864 81.776C70.4464 81.48 70.0544 81.332 69.5104 81.332C68.9504 81.332 68.5264 81.512 68.2384 81.872C67.9504 82.224 67.7904 82.712 67.7584 83.336H66.6784C66.7344 82.392 67.0264 81.668 67.5544 81.164C68.0824 80.652 68.7624 80.396 69.5944 80.396C70.3864 80.396 71.0144 80.608 71.4784 81.032C71.9424 81.456 72.1744 82.056 72.1744 82.832C72.1744 83.472 71.9664 84.124 71.5504 84.788C71.1424 85.444 70.6264 86.056 70.0024 86.624C69.3864 87.184 68.7504 87.66 68.0944 88.052H72.3904V88.952H66.5704V88.16ZM77.8078 83.744C78.0238 83.288 78.3398 82.936 78.7558 82.688C79.1718 82.432 79.6678 82.304 80.2438 82.304V83.492H79.9078C79.2918 83.492 78.7878 83.652 78.3958 83.972C78.0038 84.284 77.8078 84.804 77.8078 85.532V89H76.7158V82.412H77.8078V83.744ZM87.3813 85.34C87.3813 85.572 87.3653 85.772 87.3333 85.94H82.0653C82.0893 86.692 82.3013 87.256 82.7013 87.632C83.1093 88.008 83.6053 88.196 84.1893 88.196C84.7173 88.196 85.1573 88.064 85.5093 87.8C85.8693 87.528 86.0893 87.168 86.1693 86.72H87.3333C87.2533 87.176 87.0733 87.584 86.7933 87.944C86.5213 88.304 86.1653 88.584 85.7253 88.784C85.2853 88.984 84.7893 89.084 84.2373 89.084C83.6053 89.084 83.0453 88.948 82.5573 88.676C82.0693 88.404 81.6853 88.016 81.4053 87.512C81.1333 87 80.9973 86.4 80.9973 85.712C80.9973 85.024 81.1333 84.424 81.4053 83.912C81.6853 83.4 82.0693 83.008 82.5573 82.736C83.0453 82.464 83.6053 82.328 84.2373 82.328C84.8773 82.328 85.4333 82.464 85.9053 82.736C86.3853 83.008 86.7493 83.372 86.9973 83.828C87.2533 84.284 87.3813 84.788 87.3813 85.34ZM86.2773 85.412C86.3013 84.924 86.2213 84.516 86.0373 84.188C85.8533 83.86 85.6013 83.616 85.2813 83.456C84.9613 83.296 84.6133 83.216 84.2373 83.216C83.6373 83.216 83.1333 83.404 82.7253 83.78C82.3173 84.148 82.0973 84.692 82.0653 85.412H86.2773ZM91.3656 87.836L93.4056 82.412H94.5816L92.0016 89H90.7056L88.1256 82.412H89.3016L91.3656 87.836ZM95.4613 80.48C95.4613 80.28 95.5293 80.12 95.6653 80C95.8013 79.872 95.9813 79.808 96.2053 79.808C96.4293 79.808 96.6093 79.872 96.7453 80C96.8813 80.12 96.9493 80.28 96.9493 80.48C96.9493 80.68 96.8813 80.844 96.7453 80.972C96.6093 81.092 96.4293 81.152 96.2053 81.152C95.9813 81.152 95.8013 81.092 95.6653 80.972C95.5293 80.844 95.4613 80.68 95.4613 80.48ZM96.7453 82.412V89H95.6533V82.412H96.7453ZM104.561 85.34C104.561 85.572 104.545 85.772 104.513 85.94H99.245C99.269 86.692 99.481 87.256 99.881 87.632C100.289 88.008 100.785 88.196 101.369 88.196C101.897 88.196 102.337 88.064 102.689 87.8C103.049 87.528 103.269 87.168 103.349 86.72H104.513C104.433 87.176 104.253 87.584 103.973 87.944C103.701 88.304 103.345 88.584 102.905 88.784C102.465 88.984 101.969 89.084 101.417 89.084C100.785 89.084 100.225 88.948 99.737 88.676C99.249 88.404 98.865 88.016 98.585 87.512C98.313 87 98.177 86.4 98.177 85.712C98.177 85.024 98.313 84.424 98.585 83.912C98.865 83.4 99.249 83.008 99.737 82.736C100.225 82.464 100.785 82.328 101.417 82.328C102.057 82.328 102.613 82.464 103.085 82.736C103.565 83.008 103.929 83.372 104.177 83.828C104.433 84.284 104.561 84.788 104.561 85.34ZM103.457 85.412C103.481 84.924 103.401 84.516 103.217 84.188C103.033 83.86 102.781 83.616 102.461 83.456C102.141 83.296 101.793 83.216 101.417 83.216C100.817 83.216 100.313 83.404 99.905 83.78C99.497 84.148 99.277 84.692 99.245 85.412H103.457ZM115.037 82.412L113.141 89H111.965L110.153 83.636L108.329 89H107.141L105.269 82.412H106.373L107.777 87.956L109.601 82.412H110.741L112.577 87.944L113.993 82.412H115.037ZM118.12 82.328C118.864 82.328 119.46 82.524 119.908 82.916C120.364 83.3 120.64 83.82 120.736 84.476H119.692C119.644 84.084 119.48 83.764 119.2 83.516C118.928 83.26 118.56 83.132 118.096 83.132C117.704 83.132 117.396 83.228 117.172 83.42C116.956 83.604 116.848 83.856 116.848 84.176C116.848 84.416 116.92 84.612 117.064 84.764C117.216 84.908 117.4 85.02 117.616 85.1C117.84 85.172 118.144 85.252 118.528 85.34C119.016 85.452 119.408 85.568 119.704 85.688C120.008 85.8 120.264 85.984 120.472 86.24C120.688 86.496 120.796 86.84 120.796 87.272C120.796 87.808 120.592 88.244 120.184 88.58C119.784 88.916 119.248 89.084 118.576 89.084C117.792 89.084 117.152 88.896 116.656 88.52C116.16 88.144 115.868 87.62 115.78 86.948H116.836C116.876 87.348 117.048 87.672 117.352 87.92C117.664 88.168 118.072 88.292 118.576 88.292C118.952 88.292 119.244 88.196 119.452 88.004C119.668 87.812 119.776 87.56 119.776 87.248C119.776 86.992 119.7 86.788 119.548 86.636C119.396 86.484 119.208 86.368 118.984 86.288C118.76 86.208 118.452 86.124 118.06 86.036C117.572 85.924 117.18 85.812 116.884 85.7C116.596 85.588 116.348 85.412 116.14 85.172C115.94 84.924 115.84 84.592 115.84 84.176C115.84 83.624 116.044 83.18 116.452 82.844C116.86 82.5 117.416 82.328 118.12 82.328Z" fill="black"/>
<path fill-rule="evenodd" clip-rule="evenodd" d="M195.5 28L196.582 30.191L199 30.5445L197.25 32.249L197.663 34.657L195.5 33.5195L193.337 34.657L193.75 32.249L192 30.5445L194.418 30.191L195.5 28Z" fill="#E67100" stroke="#E67100" stroke-linecap="round" stroke-linejoin="round"/>
<path opacity="0.9" d="M187.852 27.037H183.87V29.633C184.053 29.3837 184.317 29.1857 184.662 29.039C185.007 28.8923 185.384 28.819 185.795 28.819C186.345 28.819 186.8 28.9363 187.159 29.171C187.526 29.3983 187.793 29.7027 187.962 30.084C188.138 30.458 188.226 30.876 188.226 31.338C188.226 32.1373 188.002 32.79 187.555 33.296C187.108 33.802 186.451 34.055 185.586 34.055C184.809 34.055 184.174 33.846 183.683 33.428C183.192 33.0027 182.917 32.4343 182.858 31.723H183.848C183.929 32.1777 184.116 32.5333 184.409 32.79C184.71 33.0393 185.087 33.164 185.542 33.164C186.107 33.164 186.532 32.9953 186.818 32.658C187.104 32.3207 187.247 31.877 187.247 31.327C187.247 30.7917 187.1 30.3737 186.807 30.073C186.514 29.7723 186.099 29.622 185.564 29.622C185.183 29.622 184.849 29.7063 184.563 29.875C184.277 30.0363 184.061 30.2563 183.914 30.535H182.946V26.146H187.852V27.037Z" fill="black"/>
<path fill-rule="evenodd" clip-rule="evenodd" d="M195.5 45L196.582 47.191L199 47.5445L197.25 49.249L197.663 51.657L195.5 50.5195L193.337 51.657L193.75 49.249L192 47.5445L194.418 47.191L195.5 45Z" fill="#E67100" stroke="#E67100" stroke-linecap="round" stroke-linejoin="round"/>
<path opacity="0.9" d="M182.341 49.218V48.382L186.323 43.19H187.401V48.349H188.545V49.218H187.401V51H186.389V49.218H182.341ZM186.455 44.411L183.397 48.349H186.455V44.411Z" fill="black"/>
<path fill-rule="evenodd" clip-rule="evenodd" d="M195.5 62L196.582 64.191L199 64.5445L197.25 66.249L197.663 68.657L195.5 67.5195L193.337 68.657L193.75 66.249L192 64.5445L194.418 64.191L195.5 62Z" fill="#E67100" stroke="#E67100" stroke-linecap="round" stroke-linejoin="round"/>
<path opacity="0.9" d="M185.289 60.036C185.788 60.036 186.217 60.124 186.576 60.3C186.935 60.476 187.207 60.718 187.39 61.026C187.573 61.334 187.665 61.6823 187.665 62.071C187.665 62.555 187.522 62.962 187.236 63.292C186.957 63.622 186.547 63.82 186.004 63.886V63.952C186.569 64.0987 187.009 64.326 187.324 64.634C187.647 64.942 187.808 65.3673 187.808 65.91C187.808 66.548 187.595 67.0687 187.17 67.472C186.745 67.8753 186.132 68.077 185.333 68.077C184.534 68.077 183.885 67.8717 183.386 67.461C182.895 67.043 182.605 66.4343 182.517 65.635H183.507C183.573 66.119 183.756 66.504 184.057 66.79C184.365 67.076 184.779 67.219 185.3 67.219C185.791 67.219 186.169 67.0943 186.433 66.845C186.697 66.5883 186.829 66.2583 186.829 65.855C186.829 65.371 186.638 65.0043 186.257 64.755C185.883 64.4983 185.348 64.37 184.651 64.37H184.387V63.534H184.651C186 63.534 186.675 63.083 186.675 62.181C186.675 61.785 186.55 61.4697 186.301 61.235C186.052 61.0003 185.707 60.883 185.267 60.883C184.827 60.883 184.457 61.0113 184.156 61.268C183.855 61.5173 183.679 61.8877 183.628 62.379H182.649C182.7 61.6457 182.953 61.0737 183.408 60.663C183.87 60.245 184.497 60.036 185.289 60.036Z" fill="black"/>
<path fill-rule="evenodd" clip-rule="evenodd" d="M195.5 80L196.582 82.191L199 82.5445L197.25 84.249L197.663 86.657L195.5 85.5195L193.337 86.657L193.75 84.249L192 82.5445L194.418 82.191L195.5 80Z" fill="#E67100" stroke="#E67100" stroke-linecap="round" stroke-linejoin="round"/>
<path opacity="0.9" d="M182.462 85.23C183.709 84.394 184.706 83.5653 185.454 82.744C186.202 81.9153 186.576 81.1453 186.576 80.434C186.576 79.994 186.462 79.642 186.235 79.378C186.015 79.1067 185.656 78.971 185.157 78.971C184.644 78.971 184.255 79.136 183.991 79.466C183.727 79.7887 183.58 80.236 183.551 80.808H182.561C182.612 79.9427 182.88 79.279 183.364 78.817C183.848 78.3477 184.471 78.113 185.234 78.113C185.96 78.113 186.536 78.3073 186.961 78.696C187.386 79.0847 187.599 79.6347 187.599 80.346C187.599 80.9327 187.408 81.5303 187.027 82.139C186.653 82.7403 186.18 83.3013 185.608 83.822C185.043 84.3353 184.46 84.7717 183.859 85.131H187.797V85.956H182.462V85.23Z" fill="black"/>
<path fill-rule="evenodd" clip-rule="evenodd" d="M195.5 97L196.582 99.191L199 99.5445L197.25 101.249L197.663 103.657L195.5 102.519L193.337 103.657L193.75 101.249L192 99.5445L194.418 99.191L195.5 97Z" fill="#E67100" stroke="#E67100" stroke-linecap="round" stroke-linejoin="round"/>
<path opacity="0.9" d="M184.143 96.18V95.245H186.365V103H185.309V96.18H184.143Z" fill="black"/>
<defs>
<filter id="filter0_d_92_54" x="0" y="0" width="376" height="180" filterUnits="userSpaceOnUse" color-interpolation-filters="sRGB">
<feFlood flood-opacity="0" result="BackgroundImageFix"/>
<feColorMatrix in="SourceAlpha" type="matrix" values="0 0 0 0 0 0 0 0 0 0 0 0 0 0 0 0 0 0 127 0" result="hardAlpha"/>
<feOffset dy="25"/>
<feGaussianBlur stdDeviation="20"/>
<feColorMatrix type="matrix" values="0 0 0 0 0 0 0 0 0 0 0 0 0 0 0 0 0 0 0.1 0"/>
<feBlend mode="normal" in2="BackgroundImageFix" result="effect1_dropShadow_92_54"/>
<feBlend mode="normal" in="SourceGraphic" in2="effect1_dropShadow_92_54" result="shape"/>
</filter>
<linearGradient id="paint0_linear_92_54" x1="207.25" y1="32.0069" x2="318.765" y2="32.0069" gradientUnits="userSpaceOnUse">
<stop stop-color="#4136F1"/>
<stop offset="1" stop-color="#8743FF"/>
</linearGradient>
<linearGradient id="paint1_linear_92_54" x1="207.523" y1="49.0069" x2="278.487" y2="49.0069" gradientUnits="userSpaceOnUse">
<stop stop-color="#4136F1"/>
<stop offset="1" stop-color="#8743FF"/>
</linearGradient>
<linearGradient id="paint2_linear_92_54" x1="207.618" y1="66.0069" x2="264.39" y2="66.0069" gradientUnits="userSpaceOnUse">
<stop stop-color="#4136F1"/>
<stop offset="1" stop-color="#8743FF"/>
</linearGradient>
<linearGradient id="paint3_linear_92_54" x1="207.789" y1="83.0069" x2="239.216" y2="83.0069" gradientUnits="userSpaceOnUse">
<stop stop-color="#4136F1"/>
<stop offset="1" stop-color="#8743FF"/>
</linearGradient>
<linearGradient id="paint4_linear_92_54" x1="207.918" y1="100.007" x2="220.084" y2="100.007" gradientUnits="userSpaceOnUse">
<stop stop-color="#4136F1"/>
<stop offset="1" stop-color="#8743FF"/>
</linearGradient>
</defs>
</svg>
